# xmcd CD database file
#
# Track frame offsets:
#	150
#	20377
#	39047
#	57908
#	76274
#	91958
#	112368
#	130232
#	151486
#	173819
#
# Disc length: 2590 seconds
#
# Revision: 1
# Processed by: cddbd v1.5.2PL0 Copyright (c) Steve Scherf et al.
# Submitted via: CD2WAV32(JP) R3.22
#
DISCID=760a1c0a
DTITLE=後藤邑子 - GO TO SONG
DYEAR=2006
DGENRE=JPop
TTITLE0=キラリデイズ
TTITLE1=萌えよ! 秘密の戦士たち
TTITLE2=メロディ
TTITLE3=このみちのむこうへ
TTITLE4=熱々ベイベー
TTITLE5=君の声 僕の指 ふたりの夢
TTITLE6=約束の日へ
TTITLE7=東京エデン
TTITLE8=epilogue
TTITLE9=ヨロシク・トゥモロー
EXTD=
EXTT0=曲:小池雅也 詞:後藤邑子
EXTT1=曲:小池雅也 詞:畑亜貴
EXTT2=詞曲:橋本みゆき 編:田辺トシノ
EXTT3=詞曲:橋本みゆき 編:景家淳
EXTT4=曲:milktub 詞:畑亜貴 編:ms-jacky
EXTT5=詞曲:橋本みゆき 編:ms-jacky
EXTT6=詞曲:橋本みゆき 編:鈴木マサキ
EXTT7=曲:神前暁 詞:井出安軌
EXTT8=詞曲:橋本みゆき 編:景家淳
EXTT9=曲:鈴木マサキ 詞:後藤邑子
PLAYORDER=
